<svg xmlns="http://www.w3.org/2000/svg" viewBox="0 0 640 300" width="640" height="300">
  <defs>
    <linearGradient id="bg" x1="0" y1="0" x2="0" y2="1">
      <stop offset="0" stop-color="#1F3A6E"/>
      <stop offset="1" stop-color="#0F1F3D"/>
    </linearGradient>
    <linearGradient id="belt" x1="0" y1="0" x2="0" y2="1">
      <stop offset="0" stop-color="#5B6270"/>
      <stop offset="1" stop-color="#2B303A"/>
    </linearGradient>
    <radialGradient id="pot" cx="38%" cy="32%" r="75%">
      <stop offset="0" stop-color="#F2C96B"/>
      <stop offset="0.6" stop-color="#D9A23C"/>
      <stop offset="1" stop-color="#B27A1F"/>
    </radialGradient>
    <radialGradient id="potp" cx="38%" cy="32%" r="75%">
      <stop offset="0" stop-color="#FFE07A"/>
      <stop offset="0.6" stop-color="#F2B824"/>
      <stop offset="1" stop-color="#C48A0C"/>
    </radialGradient>
    <radialGradient id="potd" cx="38%" cy="32%" r="75%">
      <stop offset="0" stop-color="#D6A660"/>
      <stop offset="0.6" stop-color="#B57F34"/>
      <stop offset="1" stop-color="#8A5A1C"/>
    </radialGradient>
    <radialGradient id="glow" cx="50%" cy="50%" r="50%">
      <stop offset="0" stop-color="#FFE58A" stop-opacity="0.55"/>
      <stop offset="1" stop-color="#FFE58A" stop-opacity="0"/>
    </radialGradient>
  </defs>
  <rect width="640" height="300" fill="url(#bg)"/>
  <rect width="300" height="300" fill="#0F1F3D" opacity="0.55"/>
  <!-- window light -->
  <rect x="380" y="20" width="230" height="110" rx="10" fill="#6EA0E6" opacity="0.22"/>
  <rect x="395" y="32" width="95" height="86" rx="6" fill="#9CC4F5" opacity="0.28"/>
  <rect x="500" y="32" width="95" height="86" rx="6" fill="#9CC4F5" opacity="0.28"/>
  <!-- belt (perspective) -->
  <polygon points="250,105 400,105 560,235 90,235" fill="url(#belt)"/>
  <polygon points="250,105 400,105 400,112 250,112" fill="#8A93A5"/>
  <g stroke="#1B1E25" stroke-width="3" opacity="0.6">
    <line x1="238" y1="125" x2="412" y2="125"/>
    <line x1="222" y1="148" x2="428" y2="148"/>
    <line x1="200" y1="176" x2="450" y2="176"/>
    <line x1="170" y1="208" x2="480" y2="208"/>
  </g>
  <polygon points="90,235 560,235 570,248 80,248" fill="#8A93A5"/>
  <!-- glow -->
  <ellipse cx="325" cy="190" rx="120" ry="60" fill="url(#glow)"/>
  <!-- potatoes -->
  <ellipse cx="300" cy="135" rx="26" ry="17" fill="url(#pot)" stroke="#8A5A1C" stroke-width="1.5"/>
  <ellipse cx="365" cy="160" rx="30" ry="19" fill="url(#potd)" stroke="#5A3A1A" stroke-width="1.5"/>
  <ellipse cx="360" cy="157" rx="7" ry="5" fill="#4A2C12"/>
  <ellipse cx="376" cy="166" rx="5" ry="3.5" fill="#3B2210"/>
  <ellipse cx="290" cy="190" rx="38" ry="24" fill="url(#potp)" stroke="#A67E0B" stroke-width="2"/>
  <path d="M318 168l2.6 6.2 6.6.6-5 4.4 1.5 6.6-5.7-3.5-5.7 3.5 1.5-6.6-5-4.4 6.6-.6 2.6-6.2z" fill="#FFF3A8" stroke="#E2A400"/>
  <ellipse cx="420" cy="205" rx="18" ry="12" fill="#D9D67A" stroke="#84812C" stroke-width="1.5"/>
  <!-- bins -->
  <g>
    <rect x="60" y="250" width="110" height="46" rx="8" fill="#2E9E44"/>
    <rect x="195" y="250" width="110" height="46" rx="8" fill="#E2B01C"/>
    <rect x="330" y="250" width="110" height="46" rx="8" fill="#D9412E"/>
    <rect x="465" y="250" width="110" height="46" rx="8" fill="#6B7280"/>
    <g font-family="Arial, Helvetica, sans-serif" font-weight="900" font-size="15" fill="#fff" text-anchor="middle">
      <text x="115" y="279">GOOD</text>
      <text x="250" y="279">PREMIUM</text>
      <text x="385" y="279">DAMAGED</text>
      <text x="520" y="279">SMALL</text>
    </g>
  </g>
</svg>
